<?xml version="1.0" standalone="no"?>
<!DOCTYPE svg PUBLIC "-//W3C//DTD SVG 20010904//EN"
 "http://www.w3.org/TR/2001/REC-SVG-20010904/DTD/svg10.dtd">
<svg version="1.0" xmlns="http://www.w3.org/2000/svg"
 width="301.000000pt" height="301.000000pt" viewBox="0 0 301.000000 301.000000"
 preserveAspectRatio="xMidYMid meet">

<g transform="translate(0.000000,301.000000) scale(0.100000,-0.100000)"
fill="#000000" stroke="none">
<path d="M410 2340 l0 -310 215 0 215 0 0 115 0 115 225 0 225 0 0 -745 0
-745 -115 0 -115 0 0 -205 0 -205 445 0 445 0 0 205 0 205 -115 0 -115 0 0
745 0 745 225 0 225 0 0 -115 0 -115 215 0 215 0 0 310 0 310 -1095 0 -1095 0
0 -310z m1990 175 l-44 -45 -881 0 -881 0 -44 45 -44 45 969 0 969 0 -44 -45z
m110 -207 l0 -202 -45 44 -45 44 0 115 0 115 42 43 c23 24 43 43 45 43 2 0 3
-91 3 -202z m-918 85 l38 -37 0 -841 0 -841 -45 -44 -45 -44 0 922 c0 507 3
922 7 922 4 0 24 -17 45 -37z m278 -1834 l0 -122 -42 35 c-37 30 -43 42 -46
78 -3 39 1 47 39 86 24 24 44 44 46 44 2 0 3 -55 3 -121z"/>
<path d="M420 1795 l0 -95 31 0 c17 0 29 -4 27 -9 -1 -5 -59 -140 -128 -300
l-125 -291 -57 0 -58 0 0 -95 0 -95 190 0 190 0 0 94 0 95 -29 3 -30 3 21 48
21 47 163 0 163 0 21 -46 c11 -26 20 -48 20 -50 0 -2 -13 -4 -30 -4 l-30 0 0
-95 0 -95 190 0 190 0 0 95 0 94 -57 3 -57 3 -127 295 c-123 287 -126 295
-103 298 23 3 24 6 24 98 l0 94 -210 0 -210 0 0 -95z m254 -304 c20 -45 36
-87 36 -92 0 -5 -34 -9 -75 -9 -41 0 -75 3 -75 7 0 11 73 183 76 180 2 -1 19
-40 38 -86z"/>
<path d="M1860 1795 l0 -95 40 0 40 0 0 -299 0 -300 -37 -3 -38 -3 -3 -92 -3
-93 176 0 175 0 0 95 0 95 -35 0 -35 0 1 213 1 212 123 -250 123 -250 87 180
c48 99 102 212 121 250 l33 70 0 -212 1 -213 -35 0 -35 0 0 -95 0 -95 175 0
176 0 -3 93 -3 92 -32 3 -33 3 0 300 0 299 29 0 c37 0 41 12 41 111 l0 80
-157 -3 -156 -3 -103 -213 c-56 -118 -104 -215 -106 -217 -2 -2 -50 95 -108
216 l-104 219 -158 0 -158 0 0 -95z"/>
</g>
</svg>
